<mxfile host="app.diagrams.net" modified="2024-07-01T08:29:45.272Z" agent="Mozilla/5.0 (X11; Linux x86_64) AppleWebKit/537.36 (KHTML, like Gecko) Chrome/123.0.0.0 Safari/537.36" etag="DhRQWkp4x_Z3RrICpVIB" version="24.6.4" type="device">
  <diagram name="Page-1" id="gnySTsG9slXmQ3SRr0oA">
    <mxGraphModel dx="1154" dy="606" grid="1" gridSize="10" guides="1" tooltips="1" connect="1" arrows="1" fold="1" page="1" pageScale="1" pageWidth="850" pageHeight="1100" math="0" shadow="0">
      <root>
        <mxCell id="0" />
        <mxCell id="1" parent="0" />
        <mxCell id="PUGGOXwi5e6c3zt0arFV-1" value="" style="rounded=1;whiteSpace=wrap;html=1;arcSize=7;" vertex="1" parent="1">
          <mxGeometry x="130" y="450" width="380" height="330" as="geometry" />
        </mxCell>
        <mxCell id="PUGGOXwi5e6c3zt0arFV-10" style="edgeStyle=orthogonalEdgeStyle;rounded=0;orthogonalLoop=1;jettySize=auto;html=1;" edge="1" parent="1" source="PUGGOXwi5e6c3zt0arFV-2" target="PUGGOXwi5e6c3zt0arFV-9">
          <mxGeometry relative="1" as="geometry" />
        </mxCell>
        <mxCell id="PUGGOXwi5e6c3zt0arFV-2" value="API interface" style="rounded=1;whiteSpace=wrap;html=1;" vertex="1" parent="1">
          <mxGeometry x="175" y="470" width="290" height="40" as="geometry" />
        </mxCell>
        <mxCell id="PUGGOXwi5e6c3zt0arFV-3" value="Akai Server" style="text;html=1;align=center;verticalAlign=middle;whiteSpace=wrap;rounded=0;" vertex="1" parent="1">
          <mxGeometry x="140" y="410" width="100" height="30" as="geometry" />
        </mxCell>
        <mxCell id="PUGGOXwi5e6c3zt0arFV-4" value="" style="rounded=1;whiteSpace=wrap;html=1;" vertex="1" parent="1">
          <mxGeometry x="160" y="590" width="320" height="170" as="geometry" />
        </mxCell>
        <mxCell id="PUGGOXwi5e6c3zt0arFV-6" value="DHT module" style="rounded=1;whiteSpace=wrap;html=1;" vertex="1" parent="1">
          <mxGeometry x="175" y="610" width="105" height="130" as="geometry" />
        </mxCell>
        <mxCell id="PUGGOXwi5e6c3zt0arFV-15" style="edgeStyle=orthogonalEdgeStyle;rounded=0;orthogonalLoop=1;jettySize=auto;html=1;entryX=1;entryY=0.5;entryDx=0;entryDy=0;" edge="1" parent="1" source="PUGGOXwi5e6c3zt0arFV-7" target="PUGGOXwi5e6c3zt0arFV-6">
          <mxGeometry relative="1" as="geometry">
            <Array as="points">
              <mxPoint x="340" y="675" />
            </Array>
          </mxGeometry>
        </mxCell>
        <mxCell id="PUGGOXwi5e6c3zt0arFV-18" style="edgeStyle=orthogonalEdgeStyle;rounded=0;orthogonalLoop=1;jettySize=auto;html=1;entryX=0.5;entryY=0;entryDx=0;entryDy=0;" edge="1" parent="1" source="PUGGOXwi5e6c3zt0arFV-7" target="PUGGOXwi5e6c3zt0arFV-8">
          <mxGeometry relative="1" as="geometry" />
        </mxCell>
        <mxCell id="PUGGOXwi5e6c3zt0arFV-7" value="List of Samples" style="rounded=1;whiteSpace=wrap;html=1;" vertex="1" parent="1">
          <mxGeometry x="290" y="610" width="170" height="50" as="geometry" />
        </mxCell>
        <mxCell id="PUGGOXwi5e6c3zt0arFV-8" value="Network - Specific Host" style="rounded=1;whiteSpace=wrap;html=1;" vertex="1" parent="1">
          <mxGeometry x="292.5" y="680" width="165" height="60" as="geometry" />
        </mxCell>
        <mxCell id="PUGGOXwi5e6c3zt0arFV-14" style="edgeStyle=orthogonalEdgeStyle;rounded=0;orthogonalLoop=1;jettySize=auto;html=1;exitX=0.5;exitY=1;exitDx=0;exitDy=0;" edge="1" parent="1" source="PUGGOXwi5e6c3zt0arFV-9" target="PUGGOXwi5e6c3zt0arFV-7">
          <mxGeometry relative="1" as="geometry">
            <Array as="points">
              <mxPoint x="320" y="580" />
              <mxPoint x="375" y="580" />
            </Array>
          </mxGeometry>
        </mxCell>
        <mxCell id="PUGGOXwi5e6c3zt0arFV-20" style="edgeStyle=orthogonalEdgeStyle;rounded=0;orthogonalLoop=1;jettySize=auto;html=1;" edge="1" parent="1" source="PUGGOXwi5e6c3zt0arFV-9" target="PUGGOXwi5e6c3zt0arFV-19">
          <mxGeometry relative="1" as="geometry" />
        </mxCell>
        <mxCell id="PUGGOXwi5e6c3zt0arFV-9" value="Segment Tracker Logic" style="rounded=1;whiteSpace=wrap;html=1;" vertex="1" parent="1">
          <mxGeometry x="175" y="530" width="290" height="40" as="geometry" />
        </mxCell>
        <mxCell id="PUGGOXwi5e6c3zt0arFV-19" value="PostgreSQL /&lt;br&gt;Clickhouse" style="shape=cylinder3;whiteSpace=wrap;html=1;boundedLbl=1;backgroundOutline=1;size=15;" vertex="1" parent="1">
          <mxGeometry x="570" y="490" width="120" height="120" as="geometry" />
        </mxCell>
        <mxCell id="PUGGOXwi5e6c3zt0arFV-21" value="" style="rounded=1;whiteSpace=wrap;html=1;arcSize=7;" vertex="1" parent="1">
          <mxGeometry x="130" y="160" width="380" height="200" as="geometry" />
        </mxCell>
        <mxCell id="PUGGOXwi5e6c3zt0arFV-24" style="edgeStyle=orthogonalEdgeStyle;rounded=0;orthogonalLoop=1;jettySize=auto;html=1;" edge="1" parent="1" source="PUGGOXwi5e6c3zt0arFV-22" target="PUGGOXwi5e6c3zt0arFV-2">
          <mxGeometry relative="1" as="geometry" />
        </mxCell>
        <mxCell id="PUGGOXwi5e6c3zt0arFV-22" value="API interface" style="rounded=1;whiteSpace=wrap;html=1;" vertex="1" parent="1">
          <mxGeometry x="175" y="300" width="290" height="40" as="geometry" />
        </mxCell>
        <mxCell id="PUGGOXwi5e6c3zt0arFV-23" value="Akai Client" style="text;html=1;align=center;verticalAlign=middle;whiteSpace=wrap;rounded=0;" vertex="1" parent="1">
          <mxGeometry x="120" y="120" width="100" height="30" as="geometry" />
        </mxCell>
        <mxCell id="PUGGOXwi5e6c3zt0arFV-27" value="CLI&amp;nbsp;" style="rounded=1;whiteSpace=wrap;html=1;" vertex="1" parent="1">
          <mxGeometry x="150" y="180" width="155" height="100" as="geometry" />
        </mxCell>
        <mxCell id="PUGGOXwi5e6c3zt0arFV-28" value="Blockchain specific Driver&lt;br&gt;&lt;ul&gt;&lt;li&gt;Avail Block Follower&lt;/li&gt;&lt;li&gt;Ethereum Blob Tracker&lt;/li&gt;&lt;/ul&gt;" style="rounded=1;whiteSpace=wrap;html=1;" vertex="1" parent="1">
          <mxGeometry x="330" y="180" width="155" height="100" as="geometry" />
        </mxCell>
      </root>
    </mxGraphModel>
  </diagram>
</mxfile>
